<svg width="62" height="62" xmlns="http://www.w3.org/2000/svg">
 <defs>
  <linearGradient y2="0" x2="1" y1="0" x1="0" id="svg_5">
   <stop offset="0" stop-color="#2dce89"/>
   <stop offset="1" stop-color="#2dcecc  "/>
  </linearGradient>
 </defs>
 <g>
  <title>background</title>
  <rect fill="none" id="canvas_background" height="602" width="802" y="-1" x="-1"/>
 </g>
 <g>
  <title>Layer 1</title>
  <g id="ic-sessions">
   <g stroke-miterlimit="10" stroke="none" fill=" none" id="Oval">
    <circle fill="url(#svg_5)" id="svg_1" r="31" cy="31" cx="31"/>
    <circle id="svg_2" fill="url(#svg_5)" r="30.5" cy="31" cx="31"/>
   </g>
   <path id="usd-circle" d="M11.909,9.727h4.364a1.091,1.091,0,1,0,0-2.182H14.091V6.455a1.091,1.091,0,0,0-2.182,0V7.545a3.273,3.273,0,0,0,0,6.545h2.182a1.091,1.091,0,1,1,0,2.182H9.727a1.091,1.091,0,0,0,0,2.182h2.182v1.091a1.091,1.091,0,0,0,2.182,0V18.455a3.273,3.273,0,0,0,0-6.545H11.909a1.091,1.091,0,0,1,0-2.182ZM13,1A12,12,0,1,0,25,13,12,12,0,0,0,13,1Zm0,21.818A9.818,9.818,0,1,1,22.818,13,9.818,9.818,0,0,1,13,22.818Z" transform="translate(18 18)" fill="#fff"/>
  </g>
 </g>
</svg>