<svg width="32" height="32" xmlns="http://www.w3.org/2000/svg">

 <g>
  <title>background</title>
  <rect fill="none" id="canvas_background" height="34" width="34" y="-1" x="-1"/>
 </g>
 <g>
  <title>Layer 1</title>
  <path id="svg_2" d="m-0.03446,16.03098c0,-8.83805 7.15882,-15.99686 15.99687,-15.99686c8.83805,0 15.99687,7.15882 15.99687,15.99686c0,8.83805 -7.15882,15.99686 -15.99687,15.99686c-8.83805,0 -15.99687,-7.15882 -15.99687,-15.99686z" stroke-opacity="null" stroke-linecap="null" stroke-linejoin="null" stroke-width="0" stroke="#000" fill="#1d2d50"/>
  <path id="svg_1" fill="#ffffff" d="m16,4c-3.85415,0 -7,3.14585 -7,7c0,2.39306 1.22038,4.5178 3.0625,5.78125c-3.57695,1.52167 -6.0625,5.07863 -6.0625,9.21875l2,0c0,-4.46667 3.53333,-8 8,-8c4.46667,0 8,3.53333 8,8l2,0c0,-4.14012 -2.48555,-7.69708 -6.0625,-9.21875c1.84212,-1.26345 3.0625,-3.38819 3.0625,-5.78125c0,-3.85415 -3.14585,-7 -7,-7zm0,2c2.77327,0 5,2.22673 5,5c0,2.77327 -2.22673,5 -5,5c-2.77327,0 -5,-2.22673 -5,-5c0,-2.77327 2.22673,-5 5,-5z"/>
 </g>
</svg>